<?xml version="1.0" encoding="utf-8"?>
<!-- Generator: Adobe Illustrator 16.0.0, SVG Export Plug-In . SVG Version: 6.00 Build 0)  -->
<!DOCTYPE svg PUBLIC "-//W3C//DTD SVG 1.1//EN" "http://www.w3.org/Graphics/SVG/1.1/DTD/svg11.dtd">
<svg version="1.1" id="Layer_1" xmlns="http://www.w3.org/2000/svg" xmlns:xlink="http://www.w3.org/1999/xlink" x="0px" y="0px"
	 width="1200px" height="1200px" viewBox="0 0 1200 1200" enable-background="new 0 0 1200 1200" xml:space="preserve">
<path fill-rule="evenodd" clip-rule="evenodd" fill="#3D5D9F" d="M1062.798,679.507c2.523-6.433,1.24-13.308,2.271-19.922
	c0.442-2.829,0.31-5.746,0.488-9.751c3.668,2.729,5.614,5.75,7.636,8.625c13.674,19.455,22.819,41.099,30.229,63.517
	c8.32,25.167,14.11,50.951,17.914,77.179c0.408,2.807,1.408,4.927,3.736,6.867c19.014,15.841,36.683,33.173,54.949,49.844
	c2.399,2.189,2.534,3.619,0.204,6.039c-11.858,12.318-23.66,24.7-36.864,35.595c-2.758,2.276-3.559,4.498-3.55,7.88
	c0.103,45.354,0.068,90.707-0.957,136.247c-15.406-25.609-28.755-51.981-44.522-78.175c-2.874,8.458-5.153,15.961-7.949,23.266
	c-28.506,74.513-82.326,120.475-158.996,140.42c-45.331,11.791-91.24,12.075-137.371,6.027
	c-80.479-10.55-155.155-38.6-226.603-75.98c-83.317-43.59-158.45-98.73-227.148-162.765c-3.668-3.42-7.289-4.899-12.346-4.887
	c-64.475,0.161-128.951,0.106-193.427,0.106c-2.311,0-4.621,0-7.441,0c5.294-20.258,10.421-39.983,15.606-59.694
	c10.482-39.854,20.925-79.719,31.603-119.521c1.129-4.207,0.513-7.269-1.869-10.777c-41.035-60.428-75.463-124.317-100.577-193.042
	c-17.498-47.883-30.013-96.976-34.31-147.884c-4.458-52.823-0.26-104.634,20.566-154.12c17.042-40.491,43.546-73.386,80.098-97.877
	c17.216-11.535,35.753-20.57,55.625-26.696c4.64,3.521,94.052,90.595,95.034,92.279c-1.357,0.713-2.675,1.517-4.078,2.125
	c-20.863,9.037-35.538,24.815-46.238,44.209c-9.982,18.091-13.655,38.145-14.286,58.632c-1.428,46.409,11.632,89.748,28.705,133.166
	c0.743-2.332,1.272-3.771,1.661-5.246c12.849-48.667,25.733-97.326,38.432-146.033c1.069-4.101,2.751-5.405,7.019-5.326
	c24.14,0.444,48.286,0.645,72.43,0.768c57.643,0.293,115.287,0.432,172.93,0.774c17.684,0.105,35.477-1.018,52.917,3.172
	c31.66,7.607,54.263,25.325,63.704,57.524c1.265,4.314,2.02,8.777,3.191,13.979c13.229-17.865,28.936-31.609,47.293-42.35
	c0.863-0.505,1.572-1.14,1.506-2.273c14.481-6.874,29.216-13.147,44.277-18.645c7.695-0.03,14.705-3.256,22.072-4.823
	c26.584-5.656,53.464-8.034,80.588-8.047c68.162-0.033,136.324-0.016,204.486-0.007c1.539,0,3.077,0.13,5.165,0.224
	c-4.205,15.863-8.299,31.423-12.456,46.966c-20.635,77.166-41.281,154.328-61.953,231.483c-0.561,2.095-1.246,4.112-0.248,6.236
	c-4.686,11.792-8.041,23.938-9.762,36.521c-2.46,0.337-2.075,2.478-2.501,4.042c-12.575,46.126-25.093,92.269-37.755,138.371
	c-1.002,3.648-0.899,5.039,3.505,5.297c20.707,1.213,40.755,5.885,60.329,12.591c9.336,3.198,18.541,6.781,27.806,10.19
	c5.618,4.28,12.776,5.544,18.58,9.416c4.556,3.039,5.665,0.396,5.939-3.432c0.401-5.589,1.002-11.166,1.468-16.744
	C1061.099,716.57,1063.177,698.116,1062.798,679.507z M1068.734,944.705c-3.026,0.041-4.785,2.347-6.85,3.983
	c-44.975,35.656-96.89,46.482-152.805,42.245c-12.479-0.947-25.014-2.354-37.274-5.359c-7.521-1.844-15.147-3.261-22.727-4.87
	c-18.065-5.738-36.32-10.846-53.932-18.02c-20.663-8.414-41.059-17.329-60.958-27.446c-27.205-13.832-53.589-29.059-79.448-45.238
	c-3.063-1.915-5.883-4.443-9.647-5.086c-0.381-0.414-0.696-0.932-1.153-1.229c-36.772-23.845-72.308-49.448-107.435-75.628
	c-2.354-1.754-3.448-1.356-5.015,0.909c-15.827,22.876-36.464,40.194-61.358,52.455c-3.974,1.959-3.913,2.955-0.29,5.448
	c34.618,23.821,70.361,45.802,107.255,65.906c21.659,11.804,43.395,23.468,66.098,33.197c0.95,0.64,1.835,1.423,2.861,1.896
	c41.116,18.896,83.143,35.361,126.98,46.857c24.953,6.543,50.099,12.193,75.926,14.099c5.529,2.187,11.534,1.904,17.177,2.14
	c22.92,0.962,45.885,0.483,68.548-3.529c48.462-8.58,89.863-30.245,122.488-67.562c4.165-4.763,8.781-9.317,11.477-15.244
	c0.158-0.068,0.34-0.109,0.463-0.218c0.064-0.059,0.027-0.233,0.036-0.354C1069.013,944.273,1068.873,944.489,1068.734,944.705z
	 M90.202,375.487c4.884,27.12,13.105,53.198,24.448,78.301c0.675,1.811,1.263,3.661,2.041,5.427
	c22.485,51.126,51.827,98.088,85.82,142.305c23.021,29.944,47.135,58.934,72.734,86.698c0.909,0.985,3.15,1.96,1.615,3.608
	c-1.374,1.472-2.839-0.357-4.079-1.093c-19.834-11.761-40.929-18.593-64.329-17.435c-4.886,0.242-6.969,1.672-8.22,6.506
	c-14.063,54.35-28.377,108.636-42.599,162.946c-0.979,3.738-3.58,8.623-2.149,11.008c1.645,2.741,7.165,0.354,10.929,1.156
	c-0.776,7.958-0.776,7.958,7.556,7.958c59.577,0,119.153-0.032,178.729,0.023c13.199,0.012,26.31-0.477,39.443-2.232
	c29.075-3.887,56.984-11.063,82.69-25.755c29.474-16.847,50.844-40.669,61.864-72.863c11.993-35.035,20.979-70.988,31.023-106.618
	c18.398-65.263,35.226-130.939,51.979-196.631c7.733-30.327,16.365-60.6,18.606-92.016c1.29-18.072,0.635-36.19-8.277-52.766
	c-3.009-5.597-6.255-11.226-12.876-13.496c-8.828-11.934-21.013-18.163-35.354-20.514c-6.913-1.133-13.9-1.659-20.932-1.667
	c-83.146-0.088-166.292-0.186-249.438-0.439c-4.261-0.013-6.018,1.235-7.097,5.373c-22.205,85.178-44.546,170.321-66.878,255.466
	c-3.01,11.477-6.116,22.929-9.552,35.793c-4.24-11.512-7.864-21.554-11.667-31.528c-0.91-2.387-0.502-4.429,0.117-6.758
	c7.811-29.375,15.498-58.784,23.272-88.169c0.889-3.36,0.889-6.148-1.689-9.054c-3.569-4.021-6.666-8.486-9.741-12.916
	c-6.968-10.039-13.799-20.174-20.687-30.268c-13.767-21.908-26.3-44.523-38.593-67.276c0.114-1.613-0.502-3.009-1.163-4.442
	c-11.534-25.036-20.542-50.897-25.373-78.11c-3.806-21.44-4.822-42.979-2.127-64.721c-2.278,0.234-3.232,2.139-4.523,3.451
	c-33.175,33.711-48.037,75.242-51.023,121.532c-0.936,14.506-0.862,29.171,1.088,43.653
	C86.943,358.483,87.412,367.198,90.202,375.487z M1026.542,285.424c1.211-8.497,1.211-8.497-7.744-8.497
	c-57.265,0-114.529,0.301-171.791-0.103c-41.009-0.29-79.529,8.894-115.257,28.811c-41.463,23.114-70.665,56.311-84.256,102.777
	c-28.162,96.286-53.437,193.333-77.841,290.616c-7.473,29.787-14.422,59.705-21.792,89.519c-1.305,5.276-0.229,8.629,4.642,11.538
	c10.851,6.482,21.209,13.789,32.07,20.254c20.215,12.033,40.618,23.759,62.208,33.238c7.901,5.148,15.985,8.583,26.001,8.325
	c24.526-0.634,49.08-0.203,73.622-0.189c1.75,0.001,3.518-0.042,5.249,0.166c23.007,2.771,45.215,0.628,66.347-9.768
	c25.836-12.71,47.875-30.072,66.435-52.077c14.843-17.6,26.537-37.021,33.229-58.99c13.835-45.432,25.886-91.375,38.08-137.271
	c3.112-11.714,3.063-11.728-9.028-12.243c1.389-7.941,1.389-7.941-6.783-7.941c-38.516,0-77.031-0.056-115.545,0.053
	c-6.749,0.02-15.256-2.793-19.762,1.199c-4.149,3.677-4.173,12.076-5.885,18.43c-12.573,46.665-24.311,93.574-39.875,139.376
	c-10.049,29.571-33.929,47.214-64.195,48.017c4.687-8.509,8.664-17.326,11.706-26.564c17.647-53.599,31.011-108.4,45.689-162.829
	c15.381-57.033,30.249-114.206,45.855-171.177c6.85-25.008,17.5-48.217,37.963-65.499c11.868-10.022,25.357-16.314,41.076-17.211
	c-9.503,11.085-15.591,23.946-20.032,37.753c-7.552,23.47-13.479,47.382-19.726,71.208c-4.214,16.077-8.393,32.163-12.782,48.995
	c4.369,0,8.037,0,11.707,0c-0.693,8.053-0.693,8.053,7.472,8.053c43.411,0,86.822-0.067,130.233,0.105
	c4.294,0.017,6.199-1.285,7.22-5.391c2.847-11.464,6.128-22.819,9.088-34.255c15.237-58.871,30.439-117.751,45.622-176.637
	C1038.782,285.498,1038.717,285.481,1026.542,285.424z M938.108,732.042c-31.886,100.085-99.525,152.753-203.79,157.809
	c0.144,0.432,0.159,0.737,0.275,0.783c1.261,0.489,2.53,0.958,3.811,1.396c39.738,13.585,80.363,22.995,122.41,25.263
	c32.089,1.73,63.728-0.823,94.029-12.525c26.763-10.336,48.631-26.676,62.724-52.335c1.9-3.459,2.175-6.035-0.412-9.388
	c-5.702-7.39-10.944-15.136-16.355-22.749C980.07,791.121,959.347,761.94,938.108,732.042z M1128.962,1000.714
	c0.71-2.764,1.509-4.515,1.561-6.287c0.515-17.837,2.579-35.593,2.487-53.467c-0.073-14.377-0.005-28.753-1.287-43.083
	c-0.357-4.006,1.102-6.432,4.488-8.516c11.712-7.209,21.047-17.045,29.836-27.492c3.119-3.705,2.912-6.071-0.73-9.541
	c-13.235-12.609-27.421-24.015-42.26-34.622c-2.894-2.069-4.795-4.273-5.293-7.854c-3.396-24.424-8.767-48.375-17.212-71.593
	c-4.531-12.456-10.019-24.41-17.703-35.274c-0.662-0.937-1.143-2.316-2.507-1.958c-1.443,0.378-1.076,1.88-1.096,2.982
	c-0.424,23.907-4.481,47.32-9.289,70.657c-0.914,4.439-2.05,5.527-6.398,3.33c-12.494-6.314-24.883-12.839-37.735-18.45
	c-15.711-6.857-31.946-11.763-48.826-14.593c-1.494-0.251-3.515-0.794-4.438,0.465c-1.241,1.69,0.9,2.627,1.799,3.748
	c8.848,11.034,17.847,21.948,26.557,33.09c14.919,19.084,28.518,39.183,44.239,57.651c2.651,3.115,3.056,6.465,1.866,10.336
	c-2.288,7.45-5.112,14.69-8.597,21.631c-14.001,27.89-33.11,51.971-55.323,73.72c-0.99,0.969-3.35,1.305-2.516,3.357
	c0.677,1.666,2.605,1.327,4.125,1.573c16.807,2.726,33.146,1.202,49.148-4.786c16.319-6.107,31.414-14.333,45.289-24.853
	c2.112-1.601,3.86-2.555,6.185,0.598c12.958,17.58,23.856,36.311,32.768,56.234
	C1121.412,985.129,1125.025,992.405,1128.962,1000.714z"/>
<linearGradient id="SVGID_1_" gradientUnits="userSpaceOnUse" x1="275.6318" y1="232.4253" x2="784.1973" y2="87.0373">
	<stop  offset="0" style="stop-color:#3D5D9F"/>
	<stop  offset="1" style="stop-color:#314D86"/>
</linearGradient>
<path fill-rule="evenodd" clip-rule="evenodd" fill="url(#SVGID_1_)" d="M754.289,266.784
	c-15.062,5.498-29.796,11.771-44.277,18.645c-21.023-12.907-41.968-25.942-63.56-37.899
	c-68.474-37.918-139.405-69.51-217.145-83.067c-48.681-8.489-97.106-9.211-144.48,7.845c-6.364-4.501-95.188-88.311-95.034-92.279
	c17.845-5.829,35.932-10.202,54.709-12.25c10.388-1.133,20.765-2.559,31.194-2.969c20.697-0.816,41.266,0.51,61.888,3
	c24.976,3.018,49.824,6.435,74.076,13.131c19.367,5.348,38.536,11.398,57.51,18.069c19.895,6.995,39.791,14.008,58.781,23.204
	c33.1,16.029,65.545,33.242,97.257,51.967c44.833,26.473,86.413,57.321,126.624,90.184
	C752.719,265.088,753.474,265.974,754.289,266.784z"/>
<path fill-rule="evenodd" clip-rule="evenodd" fill="#314C84" d="M982.182,575.338c1.721-12.583,5.076-24.73,9.762-36.521
	c18.247,28.489,34.055,58.316,48.596,88.828c8.097,16.992,15.659,34.223,22.259,51.862c0.379,18.609-1.699,37.063-3.245,55.563
	c-0.466,5.578-1.066,11.155-1.468,16.744c-0.274,3.827-1.384,6.471-5.939,3.432c-5.804-3.872-12.962-5.136-18.58-9.416
	c-3.242-34.538-10.953-68.087-22.148-100.886C1003.267,621.065,992.948,598.111,982.182,575.338z"/>
<path fill-rule="evenodd" clip-rule="evenodd" fill="#FDFEFE" d="M207.505,395.839c6.887,10.095,13.718,20.23,20.687,30.269
	c3.075,4.43,6.172,8.894,9.741,12.916c2.579,2.906,2.578,5.694,1.689,9.054c-7.774,29.385-15.461,58.794-23.272,88.169
	c-0.619,2.329-1.027,4.371-0.117,6.758c3.803,9.974,7.427,20.016,11.667,31.528c3.436-12.864,6.542-24.316,9.552-35.793
	c22.332-85.145,44.673-170.288,66.878-255.466c1.079-4.138,2.835-5.386,7.097-5.373c83.146,0.253,166.292,0.351,249.438,0.439
	c7.031,0.007,14.019,0.533,20.932,1.667c14.341,2.351,26.526,8.581,35.356,20.515c5.293,8.997,8.57,18.642,9.88,29.026
	c2.972,23.547-0.134,46.671-5.542,69.443c-27.52,115.887-58.265,230.926-91.886,345.19c-12.076,41.044-38.274,70.09-76.79,88.206
	c-33.537,15.773-69.266,21.758-105.936,22.133c-48.669,0.499-97.348,0.133-146.021,0.17c-11.482,0.01-22.963,0.147-34.445,0.227
	c-3.764-0.802-9.284,1.585-10.929-1.156c-1.431-2.385,1.17-7.27,2.149-11.008c14.222-54.311,28.536-108.597,42.599-162.946
	c1.251-4.834,3.334-6.264,8.22-6.506c23.4-1.158,44.495,5.674,64.329,17.435c1.24,0.735,2.706,2.564,4.079,1.093
	c1.536-1.648-0.706-2.623-1.615-3.608c-25.599-27.765-49.713-56.754-72.734-86.698c-33.994-44.216-63.335-91.179-85.82-142.305
	c-0.777-1.766-1.365-3.616-2.04-5.427c2.852,0.508,4.738-1.464,6.825-2.769c19.729-12.336,39.596-24.463,59.053-37.215
	C189.558,407.887,199.451,403.223,207.505,395.839z M321.819,790.746c30.823-1.813,52.443-16.659,63.598-45.653
	c4.317-11.224,7.854-22.769,11.309-34.298c22.981-76.684,42.936-154.196,62.979-231.68c8.318-32.156,17.295-64.162,23.979-96.713
	c2.17-10.566,4.209-21.548-2.645-31.554c-2.503-4.378-6.713-6.535-11.237-7.725c-16.979-4.465-34.109-2.424-52.041-1.333
	c1.439,1.587,2.122,2.529,2.984,3.26c7.611,6.457,10.063,14.449,7.511,24.107c-1.239,4.692-1.988,9.513-3.236,14.202
	c-21.743,81.694-43.377,163.417-65.367,245.045c-11.826,43.898-22.659,88.094-37.669,131.081
	c-4.442,12.721-9.135,25.285-22.778,31.73C306.913,791.387,314.39,792.455,321.819,790.746z"/>
<path fill-rule="evenodd" clip-rule="evenodd" fill="#FDFEFE" d="M646.781,853.576c-21.59-9.479-41.992-21.205-62.208-33.238
	c-10.86-6.465-21.219-13.771-32.07-20.254c-4.871-2.909-5.947-6.262-4.642-11.538c7.369-29.813,14.319-59.731,21.792-89.519
	c24.404-97.283,49.679-194.33,77.841-290.616c13.591-46.466,42.793-79.663,84.256-102.777c35.728-19.917,74.248-29.1,115.257-28.811
	c57.262,0.404,114.526,0.102,171.791,0.103c8.955,0,8.955,0,7.744,8.498c-0.366,0.881-0.845,1.734-1.082,2.649
	c-18.3,70.479-36.635,140.949-54.739,211.479c-1.149,4.479-2.859,5.709-7.339,5.64c-17.706-0.276-35.418-0.146-53.128-0.105
	c-24.709,0.056-49.418,0.167-74.127,0.253c-3.67,0-7.338,0-11.707,0c4.39-16.832,8.568-32.918,12.782-48.995
	c6.247-23.827,12.174-47.738,19.726-71.208c4.441-13.807,10.529-26.667,20.032-37.753c3.668-3.028,7.335-6.056,11.306-9.335
	c-0.969-0.33-1.475-0.634-1.994-0.66c-28.225-1.43-52.531,6.851-71.254,28.865c-13.234,15.561-21.601,33.696-26.865,53.184
	c-18.487,68.448-36.488,137.028-55.018,205.465c-12.13,44.799-23.133,89.931-38.36,133.843c-4.528,13.06-9.159,26.132-23.412,32.522
	c7.956,0.038,15.671,1.321,23.308-0.604c30.267-0.803,54.146-18.445,64.195-48.017c15.564-45.802,27.302-92.711,39.875-139.376
	c1.712-6.354,1.735-14.753,5.885-18.43c4.506-3.993,13.013-1.18,19.762-1.199c38.514-0.109,77.029-0.053,115.545-0.053
	c8.172,0,8.172,0,6.784,7.941c-0.577,1.637-1.263,3.244-1.718,4.913c-9.859,36.182-19.627,72.388-29.557,108.55
	c-6.805,24.786-14.312,49.28-29.313,70.719c-22.165,31.675-50.52,55.621-86.099,71.19c-18.087,7.914-36.892,6.607-55.705,6.636
	C711.809,853.587,679.295,853.566,646.781,853.576z"/>
<path fill-rule="evenodd" clip-rule="evenodd" fill="#FDFEFE" d="M284.828,172.308c47.374-17.056,95.799-16.334,144.48-7.845
	c77.739,13.557,148.671,45.149,217.145,83.067c21.592,11.957,42.536,24.992,63.56,37.899c0.066,1.134-0.643,1.769-1.506,2.273
	c-18.357,10.74-34.064,24.485-47.293,42.35c-1.172-5.201-1.927-9.665-3.191-13.979c-9.44-32.199-32.044-49.917-63.704-57.524
	c-17.44-4.19-35.232-3.067-52.917-3.172c-57.643-0.342-115.287-0.481-172.93-0.774c-24.145-0.123-48.29-0.323-72.43-0.768
	c-4.267-0.079-5.949,1.226-7.019,5.326c-12.699,48.707-25.583,97.365-38.432,146.033c-0.389,1.475-0.918,2.914-1.661,5.246
	c-17.072-43.418-30.133-86.757-28.705-133.166c0.631-20.487,4.304-40.541,14.286-58.632c10.701-19.394,25.375-35.172,46.238-44.209
	C282.152,173.824,283.47,173.021,284.828,172.308z"/>
<path fill-rule="evenodd" clip-rule="evenodd" fill="#FDFEFE" d="M938.108,732.042c21.238,29.898,41.962,59.079,62.691,88.253
	c5.411,7.613,10.653,15.359,16.355,22.749c2.587,3.353,2.313,5.929,0.412,9.388c-14.093,25.659-35.961,41.999-62.724,52.335
	c-30.302,11.702-61.94,14.256-94.029,12.525c-42.047-2.268-82.672-11.678-122.41-25.263c-1.28-0.438-2.55-0.906-3.811-1.396
	c-0.116-0.046-0.132-0.352-0.275-0.783C838.583,884.795,906.223,832.127,938.108,732.042z"/>
<path fill-rule="evenodd" clip-rule="evenodd" fill="#FDFEFE" d="M645.094,884.914c-2.794,1.416-1.793,4.039-1.801,6.193
	c-0.082,24.955-0.079,49.911-0.098,74.866c-22.703-9.729-44.438-21.394-66.098-33.197c-36.894-20.104-72.637-42.085-107.255-65.906
	c-3.623-2.493-3.684-3.489,0.29-5.448c24.894-12.261,45.531-29.579,61.358-52.455c1.567-2.266,2.661-2.663,5.015-0.909
	c35.127,26.18,70.663,51.783,107.435,75.628C644.397,883.982,644.713,884.5,645.094,884.914z"/>
<path fill-rule="evenodd" clip-rule="evenodd" fill="#314C84" d="M166.413,854.916c11.481-0.079,22.963-0.217,34.445-0.227
	c48.674-0.037,97.352,0.329,146.021-0.17c36.67-0.375,72.399-6.359,105.936-22.133c38.516-18.116,64.713-47.162,76.79-88.206
	c33.621-114.265,64.366-229.303,91.886-345.19c5.408-22.772,8.514-45.896,5.542-69.443c-1.31-10.384-4.587-20.03-9.88-29.026
	c6.619,2.27,9.865,7.899,12.874,13.496c8.912,16.575,9.567,34.694,8.277,52.766c-2.241,31.416-10.873,61.689-18.606,92.016
	c-16.754,65.692-33.582,131.369-51.979,196.631c-10.044,35.63-19.03,71.583-31.023,106.618
	c-11.02,32.194-32.39,56.017-61.864,72.863c-25.706,14.692-53.615,21.868-82.69,25.755c-13.134,1.756-26.245,2.244-39.443,2.232
	c-59.577-0.056-119.153-0.023-178.729-0.023C165.637,862.874,165.637,862.874,166.413,854.916z"/>
<path fill-rule="evenodd" clip-rule="evenodd" fill="#FDFEFE" d="M982.182,575.338c10.767,22.773,21.085,45.727,29.235,69.606
	c11.195,32.799,18.906,66.348,22.148,100.886c-9.265-3.409-18.47-6.992-27.806-10.19c-19.574-6.706-39.622-11.378-60.329-12.591
	c-4.404-0.258-4.507-1.648-3.505-5.297c12.662-46.103,25.18-92.245,37.755-138.371C980.106,577.816,979.722,575.675,982.182,575.338
	z"/>
<linearGradient id="SVGID_2_" gradientUnits="userSpaceOnUse" x1="180.3706" y1="409.5762" x2="72.842" y2="222.5699">
	<stop  offset="0" style="stop-color:#FFFFFF"/>
	<stop  offset="1" style="stop-color:#9AABCD"/>
</linearGradient>
<path fill-rule="evenodd" clip-rule="evenodd" fill="url(#SVGID_2_)" d="M168.912,328.565c0.114-1.613-0.502-3.009-1.163-4.443
	c-11.534-25.036-20.542-50.897-25.373-78.11c-3.806-21.44-4.822-42.979-2.127-64.721c-2.278,0.234-3.232,2.139-4.523,3.451
	c-33.175,33.711-48.037,75.242-51.023,121.532c-0.936,14.506-0.862,29.171,1.088,43.653c1.152,8.557,1.621,17.272,4.412,25.561
	c4.884,27.12,13.105,53.198,24.449,78.301c2.852,0.508,4.738-1.464,6.825-2.769c19.729-12.336,39.596-24.463,59.053-37.215
	c9.03-5.917,18.922-10.582,26.977-17.966C193.738,373.933,181.205,351.317,168.912,328.565z"/>
<g>
	<linearGradient id="SVGID_3_" gradientUnits="userSpaceOnUse" x1="643.125" y1="958.1514" x2="1068.6055" y2="958.1514">
		<stop  offset="0" style="stop-color:#FFFFFF"/>
		<stop  offset="1" style="stop-color:#9AABCD"/>
	</linearGradient>
	<path fill="url(#SVGID_3_)" d="M909.08,990.934c-12.479-0.947-25.014-2.354-37.274-5.359c-7.521-1.844-15.147-3.261-22.727-4.869
		c-18.065-5.739-36.32-10.847-53.932-18.021c-20.663-8.414-41.059-17.329-60.958-27.446c-27.205-13.832-53.589-29.059-79.448-45.238
		c-3.063-1.915-5.883-4.443-9.647-5.086c-2.794,1.416-1.793,4.039-1.801,6.193c-0.082,24.955-0.079,49.911-0.098,74.866
		c0.95,0.64,1.835,1.423,2.861,1.896c41.116,18.896,83.143,35.361,126.98,46.857c24.953,6.543,50.099,12.193,75.926,14.099
		c5.529,2.187,11.534,1.904,17.177,2.14c22.92,0.962,45.885,0.483,68.548-3.529c48.462-8.58,89.863-30.245,122.488-67.562
		c4.144-4.738,8.729-9.272,11.43-15.155c-2.944,0.106-4.688,2.357-6.721,3.97C1016.91,984.345,964.995,995.171,909.08,990.934z"/>
	<linearGradient id="SVGID_4_" gradientUnits="userSpaceOnUse" x1="1068.6055" y1="944.6738" x2="1068.7344" y2="944.6738">
		<stop  offset="0" style="stop-color:#FFFFFF"/>
		<stop  offset="1" style="stop-color:#9AABCD"/>
	</linearGradient>
	<path fill="url(#SVGID_4_)" d="M1068.651,944.63c-0.014,0.03-0.03,0.059-0.046,0.089c0.045-0.001,0.084-0.013,0.129-0.014
		L1068.651,944.63z"/>
</g>
<path fill-rule="evenodd" clip-rule="evenodd" fill="#314C84" d="M694.67,790.664c-7.637,1.925-15.352,0.642-23.308,0.604
	c14.253-6.391,18.884-19.463,23.412-32.522c15.228-43.912,26.23-89.044,38.36-133.843c18.529-68.437,36.53-137.017,55.018-205.465
	c5.265-19.488,13.631-37.624,26.865-53.184c18.723-22.015,43.029-30.295,71.254-28.865c0.52,0.026,1.025,0.33,1.994,0.66
	c-3.971,3.279-7.638,6.307-11.306,9.335c-15.719,0.897-29.208,7.189-41.076,17.211c-20.463,17.282-31.113,40.491-37.963,65.499
	c-15.606,56.971-30.475,114.144-45.855,171.177c-14.679,54.429-28.042,109.23-45.689,162.829
	C703.334,773.338,699.356,782.155,694.67,790.664z"/>
<path fill-rule="evenodd" clip-rule="evenodd" fill="#314C84" d="M646.781,853.576c32.514-0.01,65.027,0.011,97.543-0.039
	c18.813-0.028,37.618,1.278,55.705-6.636c35.579-15.569,63.934-39.516,86.099-71.19c15.002-21.438,22.509-45.933,29.313-70.719
	c9.93-36.162,19.697-72.368,29.557-108.55c0.455-1.669,1.141-3.276,1.718-4.913c12.09,0.515,12.14,0.528,9.027,12.243
	c-12.194,45.896-24.245,91.839-38.08,137.271c-6.691,21.97-18.386,41.391-33.229,58.99C865.875,822.038,843.836,839.4,818,852.11
	c-21.132,10.396-43.34,12.539-66.347,9.768c-1.731-0.208-3.499-0.165-5.249-0.166c-24.542-0.014-49.096-0.444-73.622,0.189
	C662.767,862.159,654.683,858.725,646.781,853.576z"/>
<path fill-rule="evenodd" clip-rule="evenodd" fill="#314C84" d="M1128.962,1000.714c-3.937-8.309-7.55-15.585-10.863-22.996
	c-8.911-19.924-19.81-38.654-32.768-56.234c-2.324-3.152-4.072-2.198-6.185-0.598c-13.875,10.52-28.97,18.745-45.289,24.853
	c-16.003,5.988-32.342,7.512-49.148,4.786c-1.52-0.246-3.448,0.093-4.125-1.573c-0.834-2.053,1.525-2.389,2.516-3.357
	c22.213-21.749,41.322-45.83,55.323-73.72c3.484-6.94,6.309-14.181,8.597-21.631c1.189-3.871,0.785-7.221-1.866-10.336
	c-15.722-18.469-29.32-38.567-44.239-57.651c-8.71-11.142-17.709-22.056-26.557-33.09c-0.898-1.121-3.04-2.058-1.799-3.748
	c0.924-1.259,2.944-0.716,4.438-0.465c16.88,2.83,33.115,7.735,48.826,14.593c12.853,5.611,25.241,12.136,37.735,18.45
	c4.349,2.197,5.484,1.109,6.398-3.33c4.808-23.337,8.865-46.75,9.289-70.657c0.02-1.103-0.348-2.604,1.096-2.982
	c1.364-0.358,1.845,1.021,2.507,1.958c7.685,10.864,13.172,22.818,17.703,35.274c8.445,23.218,13.815,47.169,17.212,71.593
	c0.498,3.581,2.399,5.785,5.293,7.854c14.839,10.607,29.024,22.013,42.26,34.622c3.643,3.47,3.85,5.836,0.73,9.541
	c-8.789,10.447-18.124,20.283-29.836,27.492c-3.387,2.084-4.846,4.51-4.488,8.516c1.282,14.33,1.214,28.706,1.287,43.083
	c0.092,17.874-1.973,35.63-2.487,53.467C1130.471,996.199,1129.672,997.95,1128.962,1000.714z M987.861,946.66
	c10.21,2.183,19.279,1.412,28.313-0.36c23.048-4.521,42.838-15.866,61.541-29.471c6.101-4.438,6.099-4.441,10.768,1.775
	c13.965,18.594,24.963,38.906,34.779,59.91c0.839,1.796,1.234,3.948,3.313,5.546c0.232-1.044,0.415-1.548,0.445-2.059
	c1.725-28.586,2.785-57.179,0.018-85.755c-0.385-3.975,0.605-6.371,4.112-8.505c11.568-7.037,21.483-15.976,29.932-26.632
	c2.46-3.102,2.609-4.745-0.364-7.485c-11.893-10.968-24.03-21.695-37.588-30.494c-6.736-4.372-9.108-9.714-10.262-17.339
	c-4.279-28.309-10.742-56.108-22.959-82.241c-1.669-3.57-3.168-7.289-5.902-10.512c-1.664,1.87-1.065,3.701-1.209,5.344
	c-1.838,21.151-5.123,42.046-10.22,62.683c-1.228,4.974-2.615,5.17-6.777,2.913c-20.676-11.207-41.584-21.979-64.159-28.972
	c-6.306-1.953-12.611-4.234-20.398-4.354c5.482,6.87,10.396,12.841,15.11,18.965c17.802,23.129,35.433,46.391,53.423,69.37
	c2.496,3.188,3.111,5.725,2.076,9.427c-5.845,20.895-16.392,39.387-28.777,56.955C1012.768,919.993,1001.197,933.566,987.861,946.66
	z"/>
<path fill-rule="evenodd" clip-rule="evenodd" fill="#314C84" d="M836.127,505.34c24.709-0.087,49.418-0.197,74.127-0.253
	c17.71-0.041,35.422-0.17,53.128,0.105c4.479,0.07,6.189-1.161,7.339-5.64c18.104-70.529,36.439-141,54.739-211.479
	c0.237-0.915,0.716-1.768,1.082-2.649c12.175,0.057,12.24,0.073,9.22,11.791c-15.183,58.885-30.385,117.766-45.622,176.637
	c-2.96,11.436-6.241,22.792-9.088,34.255c-1.021,4.106-2.926,5.408-7.22,5.391c-43.411-0.173-86.822-0.105-130.233-0.105
	C835.434,513.393,835.434,513.393,836.127,505.34z"/>
<path fill-rule="evenodd" clip-rule="evenodd" fill="#A6B4D2" d="M1068.734,944.705c0.139-0.216,0.278-0.432,0.417-0.647
	c-0.009,0.121,0.028,0.296-0.036,0.354c-0.123,0.108-0.305,0.149-0.464,0.218L1068.734,944.705z"/>
<path fill-rule="evenodd" clip-rule="evenodd" fill="#3D5D9F" d="M481.039,350.848c6.854,10.006,4.815,20.988,2.645,31.554
	c-6.684,32.551-15.662,64.557-23.979,96.713c-20.043,77.483-39.997,154.996-62.979,231.68c-3.455,11.529-6.992,23.074-11.309,34.298
	c-11.155,28.994-32.774,43.84-63.597,45.653c3.525-6.04,6.752-12.202,9.192-18.794c7.683-20.752,13.735-41.992,19.479-63.339
	c13.788-51.239,27.711-102.441,41.522-153.674c8.064-29.916,16.044-59.854,24.009-89.797c7.019-26.385,13.835-52.825,21-79.17
	c3.56-13.088,4.317-25.271-7.683-34.804c-0.175-0.139-0.022-0.692-0.022-1.454C446.581,350,463.831,348.969,481.039,350.848z"/>
<path fill-rule="evenodd" clip-rule="evenodd" fill="#314C84" d="M481.039,350.848c-17.208-1.879-34.458-0.849-51.722-1.135
	c0,0.762-0.153,1.315,0.022,1.454c12,9.533,11.242,21.716,7.683,34.804c-7.165,26.345-13.98,52.785-21,79.17
	c-7.965,29.942-15.945,59.881-24.009,89.797c-13.811,51.233-27.734,102.435-41.522,153.674
	c-5.744,21.347-11.796,42.587-19.479,63.339c-2.44,6.592-5.667,12.754-9.192,18.794c-7.43,1.709-14.907,0.641-22.615,0.471
	c13.644-6.445,18.336-19.01,22.778-31.73c15.01-42.987,25.843-87.183,37.669-131.081c21.99-81.628,43.624-163.351,65.367-245.045
	c1.248-4.689,1.997-9.51,3.236-14.202c2.552-9.658,0.1-17.65-7.511-24.107c-0.862-0.731-1.544-1.673-2.984-3.26
	c17.932-1.092,35.063-3.133,52.041,1.333C474.326,344.313,478.536,346.47,481.039,350.848z"/>
<path fill-rule="evenodd" clip-rule="evenodd" fill="#FDFEFE" d="M987.861,946.66c13.336-13.094,24.906-26.667,35.215-41.291
	c12.386-17.568,22.933-36.061,28.777-56.955c1.035-3.702,0.42-6.238-2.076-9.427c-17.99-22.979-35.621-46.241-53.423-69.37
	c-4.714-6.124-9.628-12.095-15.11-18.965c7.787,0.12,14.093,2.401,20.398,4.354c22.575,6.993,43.483,17.765,64.159,28.972
	c4.162,2.257,5.55,2.061,6.777-2.913c5.097-20.637,8.382-41.531,10.22-62.683c0.144-1.643-0.455-3.474,1.209-5.344
	c2.734,3.223,4.233,6.941,5.902,10.512c12.217,26.133,18.68,53.933,22.959,82.241c1.153,7.625,3.525,12.967,10.262,17.339
	c13.558,8.799,25.695,19.526,37.588,30.494c2.974,2.74,2.824,4.384,0.364,7.485c-8.448,10.656-18.363,19.595-29.932,26.632
	c-3.507,2.134-4.497,4.53-4.112,8.505c2.768,28.576,1.707,57.169-0.018,85.755c-0.03,0.511-0.213,1.015-0.445,2.059
	c-2.079-1.598-2.475-3.75-3.313-5.546c-9.816-21.004-20.814-41.316-34.779-59.91c-4.669-6.217-4.667-6.214-10.768-1.775
	c-18.703,13.604-38.493,24.949-61.541,29.471C1007.141,948.072,998.071,948.843,987.861,946.66z"/>
</svg>
